<svg width="319" height="308" xmlns="http://www.w3.org/2000/svg" xmlns:xlink="http://www.w3.org/1999/xlink" xml:space="preserve" overflow="hidden"><defs><clipPath id="clip0"><path d="M1627.2 1546.53 1885.27 1609.79 1825.57 1853.32 1567.5 1790.06 1627.2 1546.53Z" fill-rule="evenodd" clip-rule="evenodd"/></clipPath><clipPath id="clip1"><path d="M1627.2 1546.53 1885.27 1609.79 1825.57 1853.32 1567.5 1790.06Z" fill-rule="evenodd" clip-rule="evenodd"/></clipPath><clipPath id="clip2"><path d="M1627.2 1546.53 1885.27 1609.79 1825.57 1853.32 1567.5 1790.06Z" fill-rule="evenodd" clip-rule="evenodd"/></clipPath></defs><g transform="translate(-1567 -1546)"><g clip-path="url(#clip0)"><g clip-path="url(#clip1)"><g clip-path="url(#clip2)"><path d="M166.362 326.019C166.888 325.168 163.299 324.678 156.538 324.678 149.696 324.678 144.511 323.962 142.044 322.675 139.932 321.574 137.147 320.668 135.857 320.664 134.566 320.659 133.51 320.052 133.51 319.315 133.51 318.577 132.284 317.974 130.786 317.974 129.288 317.974 127.715 317.069 127.29 315.962 126.866 314.856 125.811 313.951 124.947 313.951 124.082 313.951 122.487 312.67 121.403 311.105 120.318 309.54 118.676 307.471 117.754 306.508 116.833 305.544 116.078 304.074 116.078 303.241 116.078 302.407 115.55 302.051 114.905 302.45 114.26 302.849 113.347 300.773 112.878 297.836 112.408 294.9 111.428 292.497 110.699 292.497 109.059 292.497 108.909 272.829 110.542 271.82 111.184 271.423 112.09 269.195 112.555 266.868 113.021 264.541 114.521 261.662 115.889 260.471 117.257 259.28 118.808 256.938 119.335 255.268 119.863 253.598 120.79 252.538 121.395 252.912 122.001 253.286 122.887 252.037 123.364 250.136 124.122 247.117 126.22 244.699 133.175 238.83 134.097 238.052 134.851 236.232 134.851 234.786 134.851 233.34 135.395 232.157 136.06 232.157 136.725 232.157 137.69 228.537 138.203 224.112 138.717 219.687 139.681 216.066 140.346 216.066 141.011 216.066 141.556 215.203 141.556 214.148 141.556 213.093 142.898 212.037 144.539 211.802 146.18 211.566 148.283 209.865 149.212 208.021 150.142 206.177 150.911 205.242 150.922 205.943 150.933 206.643 151.666 206.492 152.551 205.607 153.436 204.722 155.246 203.998 156.574 203.998 157.901 203.998 158.987 203.222 158.987 202.272 158.987 201.323 160.242 200.452 161.777 200.336 163.311 200.221 166.108 198.584 167.994 196.699 170.074 194.618 172.931 193.271 175.261 193.271 177.373 193.271 179.101 192.668 179.101 191.93 179.101 191.193 181.213 190.589 183.794 190.589 186.375 190.589 188.487 191.193 188.487 191.93 188.487 192.668 191.203 193.271 194.521 193.271 198.225 193.271 200.555 193.875 200.555 194.836 200.555 195.696 200.932 196.023 201.393 195.562 202.63 194.325 213.546 200.473 217.295 204.518 219.08 206.445 221.209 208.021 222.025 208.021 222.841 208.021 223.167 208.575 222.748 209.253 222.329 209.93 223.802 210.883 226.021 211.37 228.24 211.858 230.055 212.855 230.055 213.587 230.055 215.255 232.353 217.566 237.095 220.668 239.123 221.994 240.782 223.656 240.782 224.362 240.782 226.093 244.267 229.475 246.05 229.475 246.84 229.475 247.487 230.682 247.487 232.157 247.487 233.632 248.079 234.839 248.802 234.839 249.526 234.839 250.496 236.347 250.959 238.191 251.422 240.035 252.298 241.543 252.905 241.543 253.513 241.543 254.433 242.873 254.948 244.498 255.464 246.123 256.712 248.278 257.72 249.287 258.729 250.295 259.555 251.983 259.555 253.037 259.555 254.09 260.158 254.952 260.896 254.952 261.633 254.952 262.237 256.461 262.237 258.304 262.237 260.148 262.813 261.657 263.517 261.657 264.221 261.657 265.193 263.769 265.677 266.35 266.162 268.931 267.027 271.043 267.6 271.043 268.174 271.043 269.039 273.155 269.523 275.736 270.007 278.317 270.98 280.429 271.684 280.429 272.388 280.429 272.964 284.05 272.964 288.475 272.964 292.944 272.368 296.52 271.623 296.52 270.885 296.52 270.282 297.746 270.282 299.244 270.282 300.742 269.326 302.334 268.158 302.783 266.532 303.407 266.432 303.843 267.73 304.646 268.819 305.319 267.66 306.025 264.49 306.62 261.776 307.129 259.555 308.082 259.555 308.737 259.555 309.393 258.631 309.929 257.501 309.929 256.372 309.929 255.101 310.834 254.676 311.94 254.252 313.047 253.114 313.952 252.148 313.952 251.182 313.952 250.181 314.584 249.924 315.357 249.666 316.13 245.995 317.12 241.766 317.556 237.538 317.992 234.078 318.814 234.078 319.381 234.078 319.949 226.233 320.847 216.646 321.377 207.058 321.907 199.214 322.867 199.214 323.51 199.214 324.153 195.895 324.679 191.839 324.679 187.783 324.679 184.464 325.282 184.464 326.02 184.464 326.787 180.415 327.361 174.999 327.361 169.03 327.361 165.839 326.865 166.362 326.02ZM183.375 192.352C182.407 191.965 181.251 192.013 180.805 192.458 180.36 192.904 181.152 193.221 182.565 193.162 184.127 193.098 184.445 192.78 183.375 192.352ZM84.5903 243.548C82.3903 242.353 79.5006 240.206 78.1691 238.776 76.8375 237.346 75.2331 236.177 74.6043 236.177 73.9754 236.177 73.0824 234.668 72.6196 232.825 72.1568 230.981 71.1863 229.472 70.4629 229.472 69.7394 229.472 69.1475 227.945 69.1475 226.078 69.1475 224.211 68.2424 222.336 67.1362 221.912 66.03 221.487 65.1248 220.034 65.1248 218.681 65.1248 217.328 64.578 215.884 63.9096 215.471 63.2412 215.058 62.263 211.552 61.7359 207.682 61.2089 203.811 60.0964 200.213 59.2638 199.688 58.279 199.066 57.7499 193.211 57.7499 182.934L57.7499 167.136 62.4431 165.528C65.0243 164.644 66.5328 163.852 65.7953 163.769 65.0577 163.686 66.5663 162.865 69.1475 161.944 73.9396 160.235 81.2156 161.415 81.2156 163.9 81.2156 164.565 82.4225 165.11 83.8974 165.11 85.3724 165.11 86.5792 165.713 86.5792 166.451 86.5792 167.188 87.2303 167.792 88.0259 167.792 88.8216 167.792 92.188 170.507 95.5065 173.826 98.8249 177.144 102.085 179.86 102.75 179.86 103.415 179.86 104.338 181.368 104.801 183.212 105.264 185.056 106.103 186.564 106.666 186.564 107.23 186.564 108.077 188.978 108.548 191.928 109.02 194.878 109.991 197.291 110.705 197.291 111.42 197.291 112.384 198.8 112.846 200.644 113.309 202.487 114.226 203.996 114.883 203.996 115.541 203.996 116.079 205.203 116.079 206.678 116.079 208.153 116.682 209.359 117.42 209.359 118.201 209.359 118.761 213.803 118.761 220.007 118.761 225.864 118.157 231.028 117.42 231.484 116.682 231.94 116.079 233.52 116.079 234.995 116.079 236.469 115.475 237.303 114.738 236.848 114 236.392 113.397 236.979 113.397 238.151 113.397 239.324 112.341 240.674 111.05 241.15 109.76 241.626 108.32 242.588 107.85 243.287 107.381 243.987 102.855 244.82 97.7939 245.14 90.976 245.571 87.554 245.158 84.5906 243.548ZM273.493 239.65C273.094 238.61 271.343 237.402 269.602 236.965 267.86 236.528 266.012 234.814 265.495 233.157 264.978 231.499 264.183 229.841 263.73 229.472 261.056 227.3 259.552 221.726 259.552 213.991 259.552 207.924 259.093 205.463 258.078 206.09 257.005 206.753 257.005 206.25 258.078 204.246 258.889 202.73 259.552 199.333 259.552 196.696 259.552 193.561 260.481 191.107 262.234 189.606 263.709 188.343 264.925 185.784 264.937 183.92 264.954 180.955 267.524 174.788 267.577 177.582 267.629 180.297 274.302 171.052 274.302 168.266 274.302 166.27 275.089 165.11 276.442 165.11 277.619 165.11 280.285 163.897 282.368 162.414 288.581 157.989 310.507 159.02 310.507 163.736 310.507 164.492 311.315 165.11 312.303 165.11 314.18 165.11 317.211 170.532 317.211 173.889 317.211 174.961 317.814 175.837 318.552 175.837 319.361 175.837 319.893 181.424 319.893 189.917 319.893 197.66 319.367 203.996 318.723 203.996 318.08 203.996 317.161 206.45 316.682 209.451 316.183 212.569 314.386 216.329 312.488 218.227 310.661 220.054 309.166 222.427 309.166 223.499 309.166 224.572 308.562 225.45 307.825 225.45 307.087 225.45 306.484 226.374 306.484 227.503 306.484 228.633 305.638 229.881 304.605 230.278 303.571 230.674 302.421 232.162 302.049 233.584 301.678 235.006 299.959 236.737 298.23 237.429 296.371 238.174 295.909 238.762 297.098 238.868 302.739 239.371 292.603 241.363 283.982 241.446 276.751 241.516 274.03 241.05 273.493 239.65ZM54.6099 178.517C54.6099 176.673 54.9142 175.919 55.2862 176.841 55.6582 177.763 55.6582 179.271 55.2862 180.193 54.9142 181.115 54.6099 180.361 54.6099 178.517ZM139.303 177.567C139.802 176.76 138.549 175.837 136.36 175.399 132.015 174.53 122.784 166.181 122.784 163.12 122.784 162.001 122.218 161.085 121.525 161.085 120.833 161.085 119.86 158.376 119.364 155.065 118.867 151.754 117.925 149.376 117.27 149.781 116.615 150.185 116.079 148.635 116.079 146.335 116.079 143.89 115.523 142.498 114.739 142.983 113.954 143.468 113.359 141.973 113.305 139.375 113.016 125.502 111.992 104.935 111.432 101.751 111.075 99.7224 111.371 98.063 112.09 98.063 112.809 98.063 113.398 96.2172 113.398 93.9612 113.398 91.5681 113.956 90.2046 114.739 90.688 115.476 91.1438 116.079 90.576 116.079 89.4263 116.079 88.2765 116.985 87.3358 118.091 87.3358 119.197 87.3358 120.102 86.3652 120.102 85.1791 120.102 83.5481 120.919 83.2275 123.454 83.8637 125.928 84.4846 126.807 84.1713 126.807 82.6682 126.807 80.3484 132.189 79.8919 135.876 81.8989 137.157 82.5962 140.467 83.5286 143.233 83.971 145.998 84.4135 148.261 85.3052 148.261 85.9525 148.261 87.4209 156.128 95.3809 157.579 95.3809 158.165 95.3809 159.023 97.7439 159.485 100.632 159.947 103.52 160.778 106.085 161.333 106.331 161.887 106.577 163.547 109.154 165.022 112.057 167.356 116.651 167.688 119.838 167.583 136.651 167.513 147.945 166.904 156.334 166.118 156.851 165.378 157.336 164.398 159.662 163.94 162.02 162.998 166.862 159.288 171.812 156.6 171.812 155.614 171.812 155.12 172.318 155.501 172.936 155.883 173.554 153.354 174.718 149.882 175.524 146.409 176.329 142.413 177.434 141.001 177.98 139.343 178.621 138.742 178.475 139.303 177.567ZM213.963 166.449C213.963 165.712 212.907 165.098 211.616 165.085 208.395 165.053 203.236 159.331 203.236 155.789 203.236 154.19 202.632 153.255 201.895 153.711 201.024 154.249 200.554 147.541 200.554 134.57 200.554 123.587 200.138 114.184 199.629 113.675 199.12 113.166 198.867 109.596 199.067 105.742 199.445 98.4769 203.433 90.0179 206.482 90.0179 207.41 90.0179 208.892 88.4314 209.775 86.4924 210.659 84.5533 211.727 83.3122 212.149 83.7343 212.571 84.1564 214.947 83.4137 217.428 82.0839 222.303 79.4712 233.663 79.1549 235.199 81.5891 235.688 82.3632 239.079 83.2913 242.734 83.6515 246.39 84.0117 249.631 85.0565 249.937 85.9735 250.242 86.8904 251.626 88.6113 253.012 89.7977 254.397 90.9841 255.531 92.6755 255.531 93.5564 255.531 94.4373 256.27 95.4043 257.173 95.7054 259.443 96.4619 259.575 132.596 257.314 133.994 256.45 134.528 255.329 136.618 254.822 138.639 254.314 140.659 253.409 142.313 252.81 142.313 252.212 142.313 251.324 144.123 250.838 146.335 250.352 148.548 249.399 150.358 248.72 150.358 248.041 150.358 247.486 151.292 247.486 152.433 247.486 154.959 241.12 161.085 238.495 161.085 237.453 161.085 236.933 161.622 237.338 162.279 237.744 162.936 235.97 163.868 233.395 164.351 230.82 164.834 228.713 165.805 228.713 166.509 228.713 167.213 225.395 167.789 221.339 167.789 217.282 167.789 213.964 167.186 213.964 166.449ZM226.394 77.1394C226.84 76.6938 227.996 76.6462 228.964 77.0335 230.034 77.4616 229.716 77.7793 228.154 77.8436 226.741 77.9019 225.949 77.5849 226.394 77.1394Z" transform="matrix(0.972733 0.238447 -0.238082 0.971245 1592.33 1459.07)"/></g></g></g></g></svg>